<?xml version="1.0" encoding="utf-8"?>
<!-- Generator: Adobe Illustrator 19.0.0, SVG Export Plug-In . SVG Version: 6.00 Build 0)  -->
<svg version="1.1" id="Livello_1" xmlns="http://www.w3.org/2000/svg" xmlns:xlink="http://www.w3.org/1999/xlink" x="0px" y="0px"
	 viewBox="0 0 100.1 101.3" style="enable-background:new 0 0 100.1 101.3;" xml:space="preserve">
<style type="text/css">
	.st0{fill:#3399FF;}
</style>
<g>
	<path class="st0" d="M17.1,17.9l24.1,24l23-22.4L48,2.9C48,2.9,26.1-9.8,17.1,17.9z"/>
	<path class="st0" d="M12.9,21.8l27.8,27.6l23.6-23c0,0,4,0.5,3.5,3.3L41.6,56.4L12.1,27.8L12.9,21.8z"/>
	<path class="st0" d="M44.5,60l26.2-27.3c0,0,4.1,0.3,3.5,3.9L51.6,60l30.6,30.6h-5.9L44.5,60z"/>
	<path class="st0" d="M59.1,59.9l21.7-23l15.5,14.9c0,0,14.1,21.6-12.6,31.8L59.1,59.9z"/>
	<path class="st0" d="M20.9,46.5H27l28.6,28.8l-25.5,26c0,0-3.9-0.1-3.9-2.3l22.6-23.9L20.9,46.5z"/>
	<path class="st0" d="M17.1,50.8L41.4,75L19.9,97.3L2,80.9C2,80.9-8.1,59.5,17.1,50.8z"/>
	<path class="st0" d="M33.4,101.3l3.5-3h61.9c0,0,2.4,1.6,0,3"/>
</g>
</svg>
